<svg width="40" height="40" viewBox="0 0 40 40" fill="none" xmlns="http://www.w3.org/2000/svg">
<circle cx="20" cy="20" r="20" fill="#E24807"/>
<path d="M17 27.0268C12 28.5268 12 24.5268 10 24.0268M24 30.0268V26.1568C24.0375 25.68 23.9731 25.2006 23.811 24.7506C23.6489 24.3006 23.3929 23.8902 23.06 23.5468C26.2 23.1968 29.5 22.0068 29.5 16.5468C29.4997 15.1506 28.9627 13.808 28 12.7968C28.4559 11.5753 28.4236 10.2251 27.91 9.02679C27.91 9.02679 26.73 8.67679 24 10.5068C21.708 9.88561 19.292 9.88561 17 10.5068C14.27 8.67679 13.09 9.02679 13.09 9.02679C12.5764 10.2251 12.5441 11.5753 13 12.7968C12.0301 13.8155 11.4925 15.1703 11.5 16.5768C11.5 21.9968 14.8 23.1868 17.94 23.5768C17.611 23.9168 17.3573 24.3222 17.1953 24.7667C17.0334 25.2112 16.9668 25.6849 17 26.1568V30.0268" stroke="#FBFBFB" stroke-width="2" stroke-linecap="round" stroke-linejoin="round"/>
</svg>
