<svg width="40" height="40" viewBox="0 0 40 40" fill="none" xmlns="http://www.w3.org/2000/svg">
<circle cx="20" cy="20" r="20" fill="#E24807"/>
<path d="M32 14.252V26.2553C32 27.4985 30.9912 28.5073 29.7518 28.5073H10.2482C9.00882 28.5073 8 27.4985 8 26.2553V14.252C8 13.355 8.52385 12.5795 9.28479 12.2198L17.3813 20.3163C18.7811 21.7161 21.0509 21.7161 22.4508 20.3163L30.5996 12.1674C31.4205 12.5028 32 13.3091 32 14.252Z" stroke="#FBFBFB" stroke-width="2" stroke-miterlimit="10"/>
<path d="M30.6002 12.1674L22.4508 20.3163C21.0509 21.7161 18.7811 21.7161 17.3813 20.3163L9.28479 12.2198C9.5748 12.0767 9.90261 12 10.2482 12H29.7512C30.052 12 30.3383 12.0594 30.6002 12.1674Z" stroke="#FBFBFB" stroke-width="2" stroke-miterlimit="10"/>
</svg>
