<svg width="40" height="40" viewBox="0 0 40 40" fill="none" xmlns="http://www.w3.org/2000/svg">
<circle cx="20" cy="20" r="20" fill="#E24807"/>
<path fill-rule="evenodd" clip-rule="evenodd" d="M26.3602 20.3302C26.3602 18.6071 25.0206 17.2378 23.529 17.2378C22.3893 17.2378 21.3816 17.2378 20.7122 18.6802C20.5886 18.9464 20.4456 19.7218 20.4456 20.1053V27.5521H16.8246V18.0934V13.4279H20.5847L20.7702 15.2679H20.8513C21.3942 14.3936 22.628 13.4279 24.854 13.4279C27.5675 13.4279 30 15.5757 30 19.5127V27.5521H26.3602V20.3302ZM11.9491 11.7493C10.7645 11.7493 10 10.9111 10 9.87532C10 8.81437 10.7892 8 11.9977 8C13.2063 8 13.9469 8.81394 13.9716 9.87532C13.972 10.9111 13.2067 11.7493 11.9491 11.7493ZM10.4362 27.5521L10.4362 13.4279H13.6156L13.6156 27.5521H10.4362Z" stroke="#FBFBFB" stroke-width="2"/>
</svg>
